<?xml version="1.0" standalone="no"?>
<!DOCTYPE svg PUBLIC "-//W3C//DTD SVG 20010904//EN"
 "http://www.w3.org/TR/2001/REC-SVG-20010904/DTD/svg10.dtd">
<svg version="1.0" xmlns="http://www.w3.org/2000/svg"
 width="480.000000pt" height="480.000000pt" viewBox="0 0 480.000000 480.000000"
 preserveAspectRatio="xMidYMid meet">
<metadata>
Created by potrace 1.14, written by Peter Selinger 2001-2017
</metadata>
<g transform="translate(0.000000,480.000000) scale(0.100000,-0.100000)"
fill="#000000" stroke="none">
<path d="M2059 4786 c9 -11 7 -15 -7 -18 -20 -6 -52 -64 -52 -97 0 -21 -1 -21
-29 -6 -16 8 -38 26 -49 40 l-20 26 -16 -23 c-9 -12 -16 -28 -16 -35 0 -7 -21
7 -47 32 -25 25 -49 43 -51 40 -3 -2 1 -18 8 -35 12 -29 11 -33 -18 -63 -16
-18 -36 -51 -43 -75 l-12 -42 -23 21 c-19 18 -104 45 -104 33 0 -2 11 -20 25
-40 14 -20 25 -51 25 -69 l0 -32 -82 28 -83 29 42 -37 c45 -41 63 -70 63 -102
0 -12 -1 -21 -2 -21 -2 0 -27 9 -56 20 -29 11 -56 20 -60 20 -4 0 -7 -38 -7
-84 0 -79 2 -87 33 -130 17 -26 32 -48 32 -51 0 -2 -15 -9 -34 -15 -19 -6 -47
-20 -61 -32 -25 -20 -33 -33 -50 -88 l-8 -24 36 27 c20 15 38 27 42 27 3 0 -4
-18 -15 -40 -38 -75 -62 -145 -69 -202 -4 -32 -5 -58 -2 -58 3 0 6 -60 7 -133
2 -183 15 -401 24 -387 14 22 21 -7 25 -105 2 -53 6 -99 9 -103 3 -3 6 -30 6
-60 0 -68 20 -148 65 -253 19 -46 37 -100 39 -120 3 -21 9 -46 14 -56 5 -10
13 -36 16 -58 16 -89 53 -187 121 -325 40 -80 88 -181 107 -225 l34 -80 87
-44 87 -44 -40 -34 c-22 -19 -40 -43 -40 -52 0 -22 -99 -53 -237 -75 -184 -29
-434 -171 -488 -277 -17 -32 -32 -150 -40 -319 -12 -262 -14 -311 -20 -520 -3
-118 -11 -252 -16 -298 -8 -61 -8 -90 0 -110 l12 -28 229 -2 c252 -3 240 -6
251 63 l6 40 2 -50 1 -51 354 0 355 -1 3 36 3 36 78 3 77 3 0 79 0 80 -80 0
-81 0 3 58 3 57 85 0 85 0 7 -60 c5 -33 15 -112 25 -175 l16 -115 324 -2 323
-3 0 25 c0 36 17 39 24 4 l6 -30 231 3 c213 2 232 4 241 21 6 13 6 84 -1 215
-6 109 -16 328 -21 487 -14 369 -25 497 -52 553 -30 64 -109 126 -253 198
-110 54 -144 67 -220 79 -173 26 -255 52 -255 80 0 9 -21 36 -47 59 l-47 43
46 23 c117 58 216 188 299 391 49 122 116 333 124 394 2 20 6 39 9 43 2 4 7
23 10 42 3 20 19 78 37 130 18 54 33 126 36 166 l5 72 29 -16 c36 -22 42 -14
30 39 -13 54 -14 189 -3 189 5 0 13 -10 19 -22 8 -19 11 -7 17 62 4 46 12 93
18 104 6 11 15 49 20 85 16 124 20 141 31 134 7 -4 8 5 3 28 -3 19 -9 75 -12
124 -2 50 -7 110 -9 134 l-5 43 35 -26 c19 -15 35 -24 35 -21 0 12 -105 173
-141 217 l-39 47 32 -10 c18 -5 34 -9 36 -9 1 0 -7 18 -18 40 -13 25 -36 49
-65 66 -25 14 -45 27 -45 29 0 1 9 22 19 46 18 42 25 100 22 179 -1 24 -4 31
-10 21 -6 -10 -13 -11 -29 -2 -11 6 -32 11 -46 11 -23 0 -25 2 -16 26 6 14 10
37 10 51 l0 26 -25 -23 c-16 -15 -44 -27 -73 -31 l-47 -6 50 -2 c70 -2 38 -21
-35 -20 -40 0 -49 3 -35 9 11 5 15 9 8 9 -8 1 -10 16 -7 49 4 35 1 54 -13 73
-24 36 -89 89 -81 67 4 -9 10 -32 13 -51 6 -29 3 -36 -20 -51 -15 -10 -29 -15
-32 -13 -2 3 1 23 8 46 11 35 10 43 -5 60 -16 18 -18 17 -62 -5 -26 -13 -53
-29 -60 -35 -38 -31 -22 41 22 98 44 58 -26 33 -97 -35 l-47 -44 -22 22 c-16
16 -21 29 -16 51 5 25 2 30 -21 35 -21 6 -32 1 -53 -22 l-26 -29 -23 27 c-12
16 -30 28 -39 28 -12 0 -10 -6 10 -27 28 -31 48 -65 48 -84 0 -6 -12 6 -26 27
-55 82 -59 84 -151 84 l-84 0 36 -31 c19 -17 35 -36 35 -42 0 -6 -12 1 -27 15
-48 43 -76 58 -112 58 -35 0 -35 0 -13 -16 14 -10 22 -25 22 -45 l0 -31 -40
35 c-44 37 -97 57 -155 57 -31 0 -35 -2 -26 -14z m124 -20 c33 -13 87 -68 87
-88 0 -6 -9 1 -21 16 -12 15 -44 40 -73 56 -53 31 -49 40 7 16z m462 -51 c-12
-46 -13 -47 -14 -17 -1 31 16 79 24 70 2 -2 -2 -26 -10 -53z m-525 -11 c0 -8
-2 -14 -5 -14 -6 0 -35 56 -35 67 1 14 40 -39 40 -53z m259 -114 c7 -64 8 -65
21 -35 7 17 16 57 19 90 7 58 8 59 19 32 7 -16 15 -53 18 -82 4 -31 11 -52 16
-49 6 4 20 29 33 56 l23 50 7 -66 c4 -37 10 -65 13 -62 2 3 10 29 17 58 11 50
12 52 24 30 7 -13 14 -62 15 -110 2 -48 1 -63 -1 -34 -2 28 -8 52 -12 52 -5 0
-19 -24 -32 -52 l-23 -53 -6 68 c-3 37 -9 68 -14 70 -5 1 -23 -29 -41 -68
l-32 -70 5 80 c2 44 1 77 -3 73 -4 -4 -22 -41 -40 -83 -34 -77 -64 -130 -70
-123 -2 2 5 35 16 73 10 38 19 83 19 100 0 27 -3 25 -25 -24 -29 -61 -100
-164 -137 -199 -23 -21 -23 -18 9 44 29 58 33 76 33 144 0 42 -6 98 -14 123
-8 26 -12 47 -10 47 15 0 44 -92 44 -139 0 -46 2 -52 15 -41 29 24 65 113 66
164 0 45 2 48 10 26 6 -14 14 -54 18 -90z m-360 11 c11 -17 -2 -11 -47 23 -34
26 -62 52 -62 57 0 14 90 -53 109 -80z m890 55 c-24 -19 -46 -32 -49 -29 -8 8
59 63 77 63 9 0 -2 -14 -28 -34z m-1112 -63 c-3 -10 -5 -2 -5 17 0 19 2 27 5
18 2 -10 2 -26 0 -35z m918 0 c10 -21 21 -65 24 -98 l6 -60 39 58 c21 31 40
57 41 57 2 0 -1 -19 -6 -41 -6 -23 -8 -44 -5 -46 2 -3 24 7 48 21 24 13 56 30
71 35 31 12 31 9 -10 -45 -30 -41 -29 -44 11 -37 42 7 117 -26 140 -62 15 -23
13 -23 -34 7 -58 36 -76 34 -144 -18 l-48 -36 7 58 6 59 -40 -44 -41 -44 0 44
-1 44 -32 -62 -32 -62 -1 117 c0 78 -6 131 -16 159 -19 51 -8 48 17 -4z m-610
-56 l13 -62 16 35 17 35 -7 -35 c-7 -35 -55 -162 -60 -157 -2 1 2 23 7 47 11
47 4 150 -10 150 -5 0 -11 -22 -14 -49 -3 -27 -20 -80 -38 -117 l-31 -69 -14
79 c-8 44 -16 82 -18 84 -3 2 -15 -28 -27 -67 -22 -69 -38 -78 -39 -21 0 42
-22 7 -41 -67 -9 -37 -18 -59 -20 -48 -1 11 -5 2 -9 -20 -5 -30 -7 -19 -8 50
-1 71 1 85 10 65 9 -24 11 -22 24 28 8 29 20 65 29 80 l14 27 1 -33 c0 -47 21
-36 40 21 8 26 17 47 20 47 3 0 13 -19 23 -43 l18 -42 25 30 c13 17 29 56 35
89 14 68 23 60 44 -37z m-404 -35 c31 -63 20 -58 -23 9 -27 43 -32 55 -17 46
11 -6 29 -31 40 -55z m1638 -46 c10 -12 7 -13 -21 -4 -25 7 -44 6 -78 -6 l-45
-15 24 20 c28 23 103 26 120 5z m-1709 -32 c17 -15 28 -29 25 -32 -2 -3 -13 2
-22 11 -10 8 -32 23 -48 31 -26 14 -27 16 -8 16 12 0 36 -12 53 -26z m897
-165 c21 -32 41 -59 45 -59 4 0 10 21 13 48 3 26 11 58 16 72 l11 25 13 -25
c8 -14 20 -49 26 -79 14 -58 27 -49 29 19 1 32 2 33 14 17 15 -19 79 -207 73
-213 -2 -2 -19 28 -37 66 -19 39 -37 70 -40 70 -4 0 -12 -18 -19 -40 -17 -58
-28 -56 -36 7 -4 31 -10 66 -15 77 -8 23 -7 25 -44 -117 -8 -33 -17 -61 -19
-63 -2 -3 -7 23 -11 57 -6 59 -41 141 -60 143 -6 1 -20 -24 -32 -54 l-23 -55
-1 66 c0 36 5 80 11 98 11 30 12 31 30 15 10 -9 36 -43 56 -75z m-942 50 c27
-27 8 -23 -40 7 -38 25 -39 25 -10 19 17 -3 39 -15 50 -26z m185 -89 c0 -26
-3 -31 -10 -20 -8 12 -10 9 -10 -13 l0 -29 -31 32 c-35 34 -50 34 -25 -2 9
-12 16 -38 15 -58 l-1 -35 -15 44 c-9 24 -34 62 -57 84 l-41 40 40 -7 c22 -4
55 -17 74 -28 l34 -21 -5 64 -5 64 18 -40 c10 -22 19 -56 19 -75z m-270 45 c6
-25 5 -34 -2 -27 -5 5 -13 26 -18 47 -6 25 -5 34 2 27 5 -5 13 -26 18 -47z
m811 -57 c-11 -35 -22 -83 -24 -108 -2 -31 -4 -21 -5 29 l-2 73 -46 -63 c-67
-92 -67 -92 -62 -26 3 31 1 57 -3 57 -4 0 -28 -29 -53 -64 -25 -35 -53 -66
-62 -70 -14 -6 -16 -1 -11 34 7 56 -5 43 -38 -41 -27 -69 -28 -71 -41 -48 -7
13 -14 40 -14 59 l-1 35 -30 -35 -30 -35 6 30 c4 17 20 57 35 90 l28 60 1 -55
1 -55 31 55 c16 30 43 69 60 85 l30 30 -7 -58 -7 -58 66 66 c37 37 71 64 75
61 6 -3 6 -24 1 -48 -13 -70 -11 -73 22 -27 44 61 93 112 97 99 2 -5 -6 -38
-17 -72z m659 33 c1 18 8 11 31 -33 16 -32 32 -58 35 -58 3 0 2 25 -2 56 -8
65 3 66 31 4 22 -48 33 -52 28 -7 -3 29 -1 27 26 -23 16 -31 32 -78 35 -105
l6 -50 -17 42 c-18 40 -50 83 -62 83 -4 0 -12 -21 -19 -46 l-13 -47 -24 49
c-14 27 -34 60 -45 74 l-20 25 5 -65 6 -65 -26 84 c-14 46 -30 93 -37 105 -7
14 1 10 26 -13 36 -35 36 -35 36 -10z m-1443 -95 l37 -51 -37 34 c-38 36 -67
87 -67 118 1 11 6 5 15 -16 8 -18 32 -56 52 -85z m1837 53 c34 -26 27 -37 -8
-13 -15 9 -41 20 -59 24 l-32 8 36 1 c23 1 46 -7 63 -20z m-1562 -152 c-9 -48
-20 -87 -24 -87 -3 0 -10 17 -15 38 l-9 37 -17 -31 c-20 -38 -37 -138 -37
-219 0 -76 -17 -63 -40 32 l-17 67 -17 -25 c-9 -14 -22 -54 -30 -90 l-14 -64
-1 88 c-1 87 16 157 38 157 6 0 8 -7 4 -16 -5 -13 -2 -15 14 -10 15 5 23 0 32
-21 16 -34 20 -28 52 90 21 79 39 111 39 72 0 -8 5 -15 10 -15 6 0 10 5 10 10
0 17 30 84 35 78 2 -2 -3 -43 -13 -91z m1260 -312 c-6 -152 54 -382 129 -493
48 -71 69 -146 69 -245 l0 -68 -79 2 c-62 1 -78 5 -74 15 6 16 -28 73 -59 100
l-23 19 21 -25 c21 -25 46 -65 28 -45 -55 62 -76 87 -63 77 9 -6 18 -9 21 -6
3 3 26 0 49 -6 24 -6 53 -13 64 -16 11 -3 -11 15 -49 40 l-69 46 -124 0 c-88
0 -122 -3 -117 -11 4 -8 -1 -9 -16 -4 -16 5 -20 4 -15 -5 5 -9 1 -10 -15 -5
-17 5 -21 4 -15 -6 6 -9 4 -11 -8 -6 -9 3 -19 1 -23 -5 -5 -7 -2 -8 7 -3 8 4
-6 -10 -31 -31 -24 -21 -48 -38 -53 -36 -5 2 -7 -4 -3 -13 3 -9 2 -13 -3 -10
-5 3 -15 -11 -22 -30 l-13 -35 -176 0 -175 0 -18 45 c-10 24 -22 43 -26 42 -4
-1 -27 16 -51 37 -25 21 -39 35 -31 31 9 -5 12 -4 7 3 -4 6 -14 8 -23 5 -12
-5 -14 -3 -8 6 6 10 2 11 -15 6 -16 -5 -20 -4 -15 5 5 9 1 10 -15 5 -15 -5
-20 -4 -16 4 5 8 -29 11 -117 11 l-124 0 -69 -46 c-38 -25 -60 -43 -49 -40 11
3 40 10 64 16 23 6 46 9 49 6 3 -3 11 -1 19 5 28 24 11 1 -24 -32 -34 -31 -35
-31 -13 -4 l25 30 -28 -25 c-15 -13 -25 -30 -22 -38 2 -7 1 -10 -5 -7 -12 7
-33 -32 -27 -49 4 -10 -14 -14 -75 -15 l-79 -2 5 43 c3 24 8 73 11 110 6 60
10 70 37 90 62 47 85 79 147 199 63 126 95 238 103 361 l3 47 54 7 c39 5 67 2
100 -10 63 -22 141 -36 141 -24 0 5 10 3 23 -4 12 -7 76 -15 147 -18 125 -5
125 -5 95 -23 l-30 -17 30 6 c17 4 78 21 137 39 84 25 108 29 112 18 4 -9 12
-10 31 -3 35 13 34 13 28 -12 l-6 -23 25 23 c13 12 27 20 30 17 3 -3 37 8 76
25 47 20 89 30 124 31 29 0 62 4 73 9 11 5 22 9 25 9 3 1 3 -42 2 -94z m-1155
-621 c-3 -3 -12 -4 -19 -1 -8 3 -5 6 6 6 11 1 17 -2 13 -5z m1010 0 c-3 -3
-12 -4 -19 -1 -8 3 -5 6 6 6 11 1 17 -2 13 -5z m-1077 -18 c0 -2 -7 -7 -16
-10 -8 -3 -12 -2 -9 4 6 10 25 14 25 6z m1145 -6 c3 -6 -1 -7 -9 -4 -18 7 -21
14 -7 14 6 0 13 -4 16 -10z m-945 -65 c91 -31 96 -34 118 -76 40 -79 25 -188
-36 -253 -35 -37 -118 -76 -163 -76 -53 0 -119 26 -157 63 -39 37 -72 96 -72
128 0 19 2 20 16 8 15 -12 16 -11 10 9 -9 28 13 56 66 83 46 23 58 24 58 3 0
-14 3 -14 16 -4 23 20 49 -9 40 -45 -9 -34 -47 -31 -58 5 -5 15 -6 1 -4 -38 4
-59 3 -63 -15 -59 -30 8 -22 -1 21 -23 21 -11 55 -20 75 -20 35 0 122 36 112
47 -3 2 -14 0 -25 -6 -18 -10 -19 -6 -18 64 1 43 5 75 11 75 10 0 45 -22 94
-57 24 -17 24 -17 13 4 -26 48 -101 96 -178 113 -66 15 -127 3 -185 -36 -27
-18 -49 -31 -49 -28 0 17 44 84 72 111 62 60 82 61 238 8z m901 35 c27 0 129
-122 129 -154 0 -3 -22 10 -49 28 -97 65 -221 54 -320 -30 -17 -14 -37 -36
-43 -47 -11 -21 -11 -21 13 -4 49 35 84 57 94 57 6 0 10 -30 11 -70 0 -72 -3
-78 -38 -59 -16 8 -19 8 -13 -1 11 -19 86 -50 120 -50 17 0 49 9 73 20 43 19
56 32 25 24 -16 -5 -18 4 -18 75 0 45 3 81 8 81 16 0 82 -38 100 -58 13 -14
17 -27 11 -44 -6 -20 -5 -21 10 -9 14 12 16 11 16 -8 0 -60 -77 -150 -149
-176 -61 -21 -108 -19 -166 9 -90 42 -135 112 -135 209 0 76 33 136 85 154 99
34 201 62 213 57 8 -2 18 -4 23 -4z m157 -105 c-3 -3 -9 2 -12 12 -6 14 -5 15
5 6 7 -7 10 -15 7 -18z m-250 -51 c4 -30 -25 -59 -44 -43 -17 14 -18 56 -1 62
23 10 42 2 45 -19z m-1178 0 c0 -11 -5 -14 -17 -9 -10 4 -40 11 -68 15 l-50 8
68 1 c55 1 67 -2 67 -15z m610 0 c0 -2 -9 -4 -21 -4 -11 0 -18 4 -14 10 5 8
35 3 35 -6z m935 7 c-22 -4 -50 -11 -62 -15 -17 -5 -23 -3 -23 8 0 13 12 16
63 15 56 -1 58 -2 22 -8z m-658 -7 c-3 -3 -12 -4 -19 -1 -8 3 -5 6 6 6 11 1
17 -2 13 -5z m-197 -47 c0 -18 -7 -86 -15 -152 -8 -65 -13 -121 -10 -123 14
-14 51 243 41 284 -6 23 -4 24 38 24 25 0 67 -5 94 -11 49 -10 50 -10 56 -57
13 -98 73 -184 159 -229 18 -9 64 -18 107 -21 99 -6 162 20 225 90 42 47 75
121 75 169 0 19 51 39 98 39 20 0 22 -5 22 -52 0 -29 -5 -69 -10 -88 -14 -57
-89 -250 -121 -314 -16 -33 -29 -67 -29 -76 0 -24 -38 -70 -57 -70 -9 0 -25 7
-34 16 -27 24 -134 33 -486 40 -380 7 -546 -4 -637 -43 -62 -26 -119 -32 -140
-13 -17 13 -88 134 -115 195 -47 105 -69 190 -76 298 l-7 107 28 0 c52 0 104
-20 104 -39 0 -48 33 -122 75 -169 63 -70 126 -96 225 -90 143 9 229 86 264
235 12 55 15 58 52 70 65 19 74 17 74 -20z m518 -624 c18 -23 10 -109 -14
-154 -45 -88 -85 -120 -179 -145 -60 -16 -205 -18 -257 -4 -29 8 -50 7 -92 -5
-67 -20 -171 -13 -261 17 -78 26 -95 35 -95 54 0 8 -21 55 -47 103 -43 79 -46
91 -35 115 11 24 16 26 76 26 l65 0 30 -44 c117 -169 339 -239 501 -156 64 33
137 106 166 168 l26 55 51 -7 c32 -3 57 -12 65 -23z m-363 6 c-43 -10 -216 -9
-240 1 -12 5 37 8 125 7 80 0 132 -4 115 -8z m186 -12 c-23 -29 -112 -66 -197
-82 -81 -17 -88 -17 -99 -1 -11 14 -14 15 -25 1 -15 -19 -62 -19 -103 -1 -18
7 -54 22 -82 33 -27 11 -49 25 -48 31 2 6 -10 10 -25 10 -16 -1 -37 5 -48 11
-16 10 -12 11 26 6 25 -4 56 -9 70 -11 14 -3 102 -7 195 -10 140 -4 185 -1
255 14 47 10 87 17 89 15 2 -1 -1 -9 -8 -16z m-341 -138 c10 -18 11 -18 43 0
17 10 49 22 69 25 43 8 130 -12 125 -28 -2 -6 -28 -21 -58 -34 -72 -30 -189
-27 -266 7 -29 13 -50 28 -47 33 18 29 118 28 134 -3z m360 -666 l0 -278 -38
60 c-50 79 -61 165 -32 250 10 30 24 92 31 138 14 100 16 107 29 107 7 0 10
-93 10 -277z m-721 10 l-1 -258 -24 95 c-13 52 -29 155 -35 229 l-12 135 34
28 c18 15 35 28 36 28 2 0 3 -116 2 -257z m299 248 c41 6 86 8 101 4 40 -8
201 -9 240 0 l34 7 -7 -58 c-4 -33 -16 -94 -28 -137 l-20 -77 -55 -16 c-98
-29 -344 -15 -372 20 -14 18 -51 177 -51 222 l0 41 43 -8 c23 -4 75 -3 115 2z
m-173 -100 c8 -50 24 -115 35 -144 31 -82 27 -137 -16 -202 -20 -30 -40 -55
-44 -55 -5 0 -6 390 -1 479 2 43 11 16 26 -78z m741 -66 c-4 -96 -36 -299 -49
-311 -3 -3 -1 393 2 450 l1 29 26 -24 26 -24 -6 -120z m-1046 35 c0 -5 -17 -9
-37 -9 l-38 2 35 7 c19 4 36 8 38 9 1 0 2 -3 2 -9z m1223 -7 c-7 -2 -21 -2
-30 0 -10 3 -4 5 12 5 17 0 24 -2 18 -5z m-1583 -138 l0 -45 -40 0 c-38 0 -40
2 -40 30 0 22 7 33 28 44 44 25 52 20 52 -29z m180 0 l0 -45 -40 0 -40 0 0 45
0 45 40 0 40 0 0 -45z m180 0 l0 -45 -40 0 -40 0 0 45 0 45 40 0 40 0 0 -45z
m1260 0 l0 -45 -40 0 -40 0 0 45 0 45 40 0 40 0 0 -45z m180 0 l0 -45 -40 0
-40 0 0 45 0 45 40 0 40 0 0 -45z m146 24 c24 -14 34 -28 34 -45 0 -21 -4 -24
-40 -24 l-40 0 0 45 c0 25 3 45 6 45 4 0 22 -9 40 -21z m-840 -204 c-3 -27 -8
-108 -11 -180 -3 -71 -8 -158 -11 -192 -5 -57 -7 -62 -31 -65 l-25 -3 1 -133
2 -133 -113 3 -113 3 0 25 c0 25 1 25 78 22 l77 -3 0 85 0 86 -78 0 -79 0 -6
168 c-4 92 -10 212 -13 267 l-7 100 168 0 167 0 -6 -50z m-1286 0 l0 -45 -40
0 c-40 0 -40 0 -40 38 0 47 4 52 47 52 33 0 33 -1 33 -45z m180 0 l0 -45 -40
0 -40 0 0 45 0 45 40 0 40 0 0 -45z m180 0 l0 -45 -40 0 -40 0 0 45 0 45 40 0
40 0 0 -45z m180 0 l0 -45 -40 0 -40 0 0 45 0 45 40 0 40 0 0 -45z m1080 0 c0
-33 -4 -45 -15 -45 -8 0 -15 3 -15 8 0 14 21 82 25 82 3 0 5 -20 5 -45z m180
0 l0 -45 -40 0 -40 0 0 45 0 45 40 0 40 0 0 -45z m180 0 l0 -45 -40 0 -40 0 0
45 0 45 40 0 40 0 0 -45z m180 0 l0 -45 -40 0 -40 0 0 45 0 45 40 0 40 0 0
-45z m169 14 c18 -52 15 -59 -29 -59 l-40 0 0 45 c0 43 1 45 29 45 24 0 31 -6
40 -31z m-1670 -51 c1 -5 -3 -8 -9 -8 -5 0 -10 12 -9 28 0 24 1 25 9 7 5 -11
9 -23 9 -27z m-659 -143 l0 -45 -40 0 -40 0 0 45 0 45 40 0 40 0 0 -45z m180
19 c0 -16 -4 -23 -11 -18 -8 5 -10 -1 -7 -20 5 -24 3 -26 -28 -26 -34 0 -34 1
-34 45 l0 45 40 0 c36 0 40 -2 40 -26z m180 -19 l0 -45 -40 0 -40 0 0 45 0 45
40 0 40 0 0 -45z m180 0 l0 -45 -40 0 -40 0 0 45 0 45 40 0 40 0 0 -45z m168
12 c19 -51 16 -57 -28 -57 l-40 0 0 45 c0 43 1 45 28 45 23 0 30 -6 40 -33z
m203 11 c25 -30 24 -63 -2 -82 -19 -13 -25 -13 -55 2 -40 20 -40 24 -13 68 24
40 43 43 70 12z m497 -19 c12 -22 22 -43 22 -45 0 -2 -16 -4 -35 -4 -35 0 -35
0 -35 45 0 58 19 59 48 4z m212 -4 l0 -45 -40 0 c-38 0 -40 2 -40 29 0 49 9
61 46 61 34 0 34 -1 34 -45z m180 0 l0 -45 -40 0 -40 0 0 45 0 45 40 0 40 0 0
-45z m180 0 l0 -45 -40 0 -40 0 0 45 0 45 40 0 40 0 0 -45z m180 0 l0 -45 -39
0 -39 0 0 45 0 45 39 0 39 0 0 -45z m180 0 l0 -45 -40 0 -40 0 0 45 0 45 40 0
40 0 0 -45z m-2340 -180 l0 -45 -40 0 -40 0 0 45 0 45 40 0 40 0 0 -45z m180
0 l0 -45 -40 0 -40 0 0 45 0 45 40 0 40 0 0 -45z m180 0 c0 -25 -4 -45 -10
-45 -5 0 -10 12 -10 27 0 14 -7 35 -17 45 -15 17 -15 18 10 18 25 0 27 -3 27
-45z m180 0 l0 -45 -40 0 -40 0 0 45 0 45 40 0 40 0 0 -45z m180 0 l0 -45 -40
0 -40 0 0 45 0 45 40 0 40 0 0 -45z m180 0 l0 -45 -40 0 -40 0 0 45 0 45 40 0
40 0 0 -45z m540 0 l0 -45 -40 0 -40 0 0 45 0 45 40 0 40 0 0 -45z m180 0 l0
-45 -40 0 -40 0 0 45 0 45 40 0 40 0 0 -45z m180 0 l0 -45 -40 0 -40 0 0 45 0
45 40 0 40 0 0 -45z m130 36 c0 -5 -7 -14 -15 -21 -13 -10 -15 -9 -15 9 0 12
6 21 15 21 8 0 15 -4 15 -9z m230 -36 l0 -45 -40 0 -40 0 0 45 0 45 40 0 40 0
0 -45z m180 0 l0 -45 -40 0 -40 0 0 45 0 45 40 0 40 0 0 -45z m-2340 -180 l0
-45 -40 0 -40 0 0 45 0 45 40 0 40 0 0 -45z m180 0 l0 -45 -40 0 -40 0 0 45 0
45 40 0 40 0 0 -45z m180 -1 c0 -32 -4 -44 -12 -42 -14 5 -23 51 -14 74 11 30
26 12 26 -32z m180 1 l0 -45 -40 0 -40 0 0 45 0 45 40 0 40 0 0 -45z m180 0
l0 -45 -40 0 -40 0 0 45 0 45 40 0 40 0 0 -45z m180 -1 c0 -27 6 -51 15 -60 8
-9 15 -24 15 -34 0 -10 -7 -25 -15 -34 -8 -8 -15 -32 -15 -55 l0 -41 -40 0
-40 0 0 45 c0 31 4 45 13 45 9 0 12 10 9 30 -2 17 1 37 8 45 10 13 9 15 -9 15
-18 0 -21 6 -21 45 l0 45 40 0 40 0 0 -46z m540 1 l0 -45 -40 0 -40 0 0 45 0
45 40 0 40 0 0 -45z m180 0 l0 -45 -40 0 -40 0 0 45 0 45 40 0 40 0 0 -45z
m130 41 c0 -2 -7 -9 -15 -16 -12 -10 -15 -10 -15 4 0 9 7 16 15 16 8 0 15 -2
15 -4z m410 -41 l0 -45 -40 0 -40 0 0 45 0 45 40 0 40 0 0 -45z m180 0 l0 -45
-40 0 -40 0 0 45 0 45 40 0 40 0 0 -45z m-2340 -180 l0 -45 -40 0 -40 0 0 45
0 45 40 0 40 0 0 -45z m180 0 l0 -45 -40 0 -40 0 0 45 0 45 40 0 40 0 0 -45z
m180 0 c0 -25 -4 -45 -10 -45 -5 0 -10 20 -10 45 0 25 5 45 10 45 6 0 10 -20
10 -45z m180 0 l0 -45 -40 0 -40 0 0 45 0 45 40 0 40 0 0 -45z m180 0 l0 -45
-40 0 -40 0 0 45 0 45 40 0 40 0 0 -45z m720 0 l0 -45 -40 0 -40 0 0 45 0 45
40 0 40 0 0 -45z m180 0 l0 -45 -40 0 -40 0 0 45 0 45 40 0 40 0 0 -45z m540
0 l0 -45 -40 0 -40 0 0 45 0 45 40 0 40 0 0 -45z m180 0 l0 -45 -40 0 -40 0 0
45 0 45 40 0 40 0 0 -45z m-2340 -180 l0 -45 -40 0 -40 0 0 45 0 45 40 0 40 0
0 -45z m180 0 l0 -45 -40 0 -40 0 0 45 0 45 40 0 40 0 0 -45z m180 0 c0 -25
-4 -45 -10 -45 -5 0 -10 20 -10 45 0 25 5 45 10 45 6 0 10 -20 10 -45z m180 0
l0 -45 -40 0 -40 0 0 45 0 45 40 0 40 0 0 -45z m180 0 l0 -45 -40 0 -40 0 0
45 0 45 40 0 40 0 0 -45z m180 0 l0 -45 -40 0 -40 0 0 45 0 45 40 0 40 0 0
-45z m540 0 l0 -45 -40 0 -40 0 0 45 0 45 40 0 40 0 0 -45z m180 0 l0 -45 -40
0 -40 0 0 45 0 45 40 0 40 0 0 -45z m540 0 l0 -45 -40 0 -40 0 0 45 0 45 40 0
40 0 0 -45z m180 0 l0 -45 -40 0 -40 0 0 45 0 45 40 0 40 0 0 -45z m-1422
-137 c34 -34 -2 -88 -60 -88 l-38 0 0 44 c0 38 3 45 23 49 43 8 63 7 75 -5z
m-918 -43 l0 -45 -40 0 -40 0 0 45 0 45 40 0 40 0 0 -45z m180 0 l0 -45 -40 0
-40 0 0 45 0 45 40 0 40 0 0 -45z m177 -22 c-2 -16 -4 -5 -4 22 0 28 2 40 4
28 2 -13 2 -35 0 -50z m183 22 l0 -45 -40 0 -40 0 0 45 0 45 40 0 40 0 0 -45z
m180 0 l0 -45 -40 0 -40 0 0 45 0 45 40 0 40 0 0 -45z m720 0 l0 -45 -40 0
-40 0 0 45 0 45 40 0 40 0 0 -45z m180 0 l0 -45 -40 0 -40 0 0 45 0 45 40 0
40 0 0 -45z m540 0 l0 -45 -40 0 -40 0 0 45 0 45 40 0 40 0 0 -45z m180 0 l0
-45 -40 0 -40 0 0 45 0 45 40 0 40 0 0 -45z"/>
<path d="M2120 3077 c0 -12 59 -57 64 -49 3 6 -10 19 -29 31 -19 11 -35 19
-35 18z"/>
<path d="M2649 3062 c-26 -17 -35 -30 -27 -38 3 -2 17 10 33 26 32 34 31 36
-6 12z"/>
<path d="M2261 2464 c-12 -15 -21 -36 -21 -48 0 -29 24 -61 39 -52 8 5 7 11
-4 22 -19 19 -19 37 0 74 19 37 13 38 -14 4z"/>
<path d="M2515 2458 c19 -47 19 -53 -1 -73 -20 -20 -10 -33 14 -19 28 18 27
67 -2 100 l-26 29 15 -37z"/>
<path d="M2311 2406 c-9 -11 -6 -15 16 -19 34 -6 40 -2 23 18 -15 19 -24 19
-39 1z"/>
<path d="M2437 2403 c-14 -14 -6 -19 23 -15 16 2 27 8 24 13 -6 11 -38 12 -47
2z"/>
<path d="M2370 2361 c0 -13 27 -21 45 -15 25 10 17 24 -15 24 -16 0 -30 -4
-30 -9z"/>
</g>
</svg>
